<svg width="47" height="30" viewBox="0 0 47 30" fill="none" xmlns="http://www.w3.org/2000/svg">
<rect width="47" height="30" rx="15" fill="#AA93FF"/>
<path d="M29.2941 14.2434H21.409L24.8538 10.5329C25.1292 10.2363 25.1292 9.74971 24.8538 9.45317C24.722 9.31079 24.5429 9.23077 24.3562 9.23077C24.1694 9.23077 23.9904 9.31079 23.8585 9.45317L19.2065 14.4639C18.9312 14.7605 18.9312 15.2395 19.2065 15.5361L23.8585 20.5468C24.1338 20.8434 24.5785 20.8434 24.8538 20.5468C25.1292 20.2503 25.1292 19.7713 24.8538 19.4747L21.409 15.7642H29.2941C29.6823 15.7642 30 15.422 30 15.0038C30 14.5856 29.6823 14.2434 29.2941 14.2434Z" fill="#4F178A"/>
</svg>
