<svg width="49" height="30" viewBox="0 0 49 30" fill="none" xmlns="http://www.w3.org/2000/svg">
<rect width="49" height="30" rx="15" fill="#AA93FF"/>
<path d="M20.2941 14.2434H12.409L15.8538 10.5329C16.1292 10.2363 16.1292 9.74971 15.8538 9.45317C15.722 9.31079 15.5429 9.23077 15.3562 9.23077C15.1694 9.23077 14.9904 9.31079 14.8585 9.45317L10.2065 14.4639C9.93117 14.7605 9.93117 15.2395 10.2065 15.5361L14.8585 20.5468C15.1338 20.8434 15.5785 20.8434 15.8538 20.5468C16.1292 20.2503 16.1292 19.7713 15.8538 19.4747L12.409 15.7642H20.2941C20.6823 15.7642 21 15.422 21 15.0038C21 14.5856 20.6823 14.2434 20.2941 14.2434Z" fill="#4F178A"/>
<path d="M27.7059 14.2434H35.591L32.1462 10.5329C31.8708 10.2363 31.8708 9.74971 32.1462 9.45317C32.278 9.31079 32.4571 9.23077 32.6438 9.23077C32.8306 9.23077 33.0096 9.31079 33.1415 9.45317L37.7935 14.4639C38.0688 14.7605 38.0688 15.2395 37.7935 15.5361L33.1415 20.5468C32.8662 20.8434 32.4215 20.8434 32.1462 20.5468C31.8708 20.2503 31.8708 19.7713 32.1462 19.4747L35.591 15.7642H27.7059C27.3177 15.7642 27 15.422 27 15.0038C27 14.5856 27.3177 14.2434 27.7059 14.2434Z" fill="#4F178A"/>
</svg>
